<?xml version="1.0" encoding="UTF-8" standalone="no"?>
<!-- Created with Inkscape (http://www.inkscape.org/) -->

<svg
   xmlns:dc="http://purl.org/dc/elements/1.1/"
   xmlns:cc="http://creativecommons.org/ns#"
   xmlns:rdf="http://www.w3.org/1999/02/22-rdf-syntax-ns#"
   xmlns:svg="http://www.w3.org/2000/svg"
   xmlns="http://www.w3.org/2000/svg"
   xmlns:sodipodi="http://sodipodi.sourceforge.net/DTD/sodipodi-0.dtd"
   xmlns:inkscape="http://www.inkscape.org/namespaces/inkscape"
   width="210mm"
   height="297mm"
   viewBox="0 0 210 297"
   version="1.1"
   id="svg8"
   inkscape:version="0.92.1 r15371"
   sodipodi:docname="Таск-2.svg">
  <defs
     id="defs2" />
  <sodipodi:namedview
     id="base"
     pagecolor="#ffffff"
     bordercolor="#666666"
     borderopacity="1.0"
     inkscape:pageopacity="0.0"
     inkscape:pageshadow="2"
     inkscape:zoom="0.35"
     inkscape:cx="400"
     inkscape:cy="560"
     inkscape:document-units="mm"
     inkscape:current-layer="layer1"
     showgrid="false"
     inkscape:window-width="1366"
     inkscape:window-height="705"
     inkscape:window-x="-8"
     inkscape:window-y="-8"
     inkscape:window-maximized="1" />
  <metadata
     id="metadata5">
    <rdf:RDF>
      <cc:Work
         rdf:about="">
        <dc:format>image/svg+xml</dc:format>
        <dc:type
           rdf:resource="http://purl.org/dc/dcmitype/StillImage" />
        <dc:title></dc:title>
      </cc:Work>
    </rdf:RDF>
  </metadata>
  <g
     inkscape:label="Layer 1"
     inkscape:groupmode="layer"
     id="layer1">
    <path
       style="fill:#999999;stroke-width:12.34015764;stroke:#000000;stroke-opacity:1;stroke-miterlimit:4;stroke-dasharray:none"
       d="M 399.63672 91.847656 L 341.76562 223.76562 A 214.64947 199.24358 0 0 1 414.28516 211.84766 A 214.64947 199.24358 0 0 1 469.58008 218.81641 L 399.63672 91.847656 z M 469.58008 218.81641 L 503.86328 281.05273 L 583.78906 289.01172 A 214.64947 199.24358 0 0 0 469.58008 218.81641 z M 583.78906 289.01172 A 214.64947 199.24358 0 0 1 628.46875 398.82812 L 718.8125 302.45508 L 583.78906 289.01172 z M 628.46875 398.82812 L 571.07617 460.04883 L 586.31445 529.85547 A 214.64947 199.24358 0 0 0 628.93555 411.0918 A 214.64947 199.24358 0 0 0 628.46875 398.82812 z M 586.31445 529.85547 A 214.64947 199.24358 0 0 1 472.05078 602.9668 L 617.14258 671.0918 L 586.31445 529.85547 z M 472.05078 602.9668 L 421.61133 579.28516 L 374.58984 606.77734 A 214.64947 199.24358 0 0 0 414.28516 610.33398 A 214.64947 199.24358 0 0 0 472.05078 602.9668 z M 374.58984 606.77734 A 214.64947 199.24358 0 0 1 253.41211 542.62305 L 235.13281 688.3125 L 374.58984 606.77734 z M 253.41211 542.62305 L 262.02344 473.98047 L 199.92578 418.67969 A 214.64947 199.24358 0 0 0 253.41211 542.62305 z M 199.92578 418.67969 A 214.64947 199.24358 0 0 1 199.63672 411.0918 A 214.64947 199.24358 0 0 1 232.90234 304.98438 L 100.70508 330.32031 L 199.92578 418.67969 z M 232.90234 304.98438 L 312.85742 289.66211 L 341.76562 223.76562 A 214.64947 199.24358 0 0 0 232.90234 304.98438 z "
       transform="scale(0.26458333)"
       id="path10" />
  </g>
</svg>
